<svg xmlns="http://www.w3.org/2000/svg" width="21" height="19" viewBox="0 0 21 19" fill="#84dee9">
  <path
    d="M25.072,196.175v3.24a1.324,1.324,0,0,0,2.647,0v-3.24A1.324,1.324,0,0,0,25.072,196.175Zm3.31-1.3v4.536a1.324,1.324,0,0,0,2.648,0v-4.536A1.324,1.324,0,0,0,28.382,194.879Zm3.309-1.3v5.833a1.324,1.324,0,0,0,2.648,0v-5.833A1.324,1.324,0,0,0,31.691,193.582Zm9.265,1.438a0.44,0.44,0,0,0-.4-0.249H39.248A9.687,9.687,0,1,0,29.706,206a9.782,9.782,0,0,0,8.406-4.75,0.854,0.854,0,0,0-.322-1.181,0.893,0.893,0,0,0-1.206.316,8.007,8.007,0,0,1-6.879,3.888,7.778,7.778,0,1,1,7.736-9.505h-1.3a0.443,0.443,0,0,0-.4.249,0.426,0.426,0,0,0,.061.459l2.206,2.593a0.448,0.448,0,0,0,.678,0l2.206-2.593A0.422,0.422,0,0,0,40.955,195.02Z"
    transform="translate(-20 -187)"/>
</svg>
