<svg xmlns="http://www.w3.org/2000/svg" width="17" height="18" viewBox="0 0 17 18">
  <path
    fill="#e09362"
    d="M38.654,93.937l-5.047-2.994,0.243-2.326a3.359,3.359,0,1,0-6.7,0l0.243,2.326-5.047,2.994a0.7,0.7,0,0,0-.346.6v3.2a0.7,0.7,0,0,0,.291.564,0.733,0.733,0,0,0,.637.109l5.09-1.493,0.275,2.636-1.265.823a0.7,0.7,0,0,0-.311.466,0.69,0.69,0,0,0,.134.541l1.025,1.332a0.732,0.732,0,0,0,.847.229l1.777-.7,1.777,0.7a0.73,0.73,0,0,0,.847-0.229l1.025-1.332a0.69,0.69,0,0,0,.134-0.541,0.7,0.7,0,0,0-.311-0.466l-1.265-.823,0.275-2.636,5.09,1.493a0.733,0.733,0,0,0,.637-0.109A0.7,0.7,0,0,0,39,97.741v-3.2A0.7,0.7,0,0,0,38.654,93.937ZM37.559,96.8l-5-1.466a0.734,0.734,0,0,0-.607.089,0.7,0.7,0,0,0-.317.513l-0.408,3.9a0.7,0.7,0,0,0,.317.656l0.992,0.645-0.234.3-1.534-.608a0.733,0.733,0,0,0-.542,0l-1.534.608-0.234-.3,0.992-.645a0.7,0.7,0,0,0,.317-0.656l-0.408-3.9a0.7,0.7,0,0,0-.317-0.513,0.734,0.734,0,0,0-.607-0.089l-5,1.466V94.934l5.09-3.019a0.7,0.7,0,0,0,.343-0.672l-0.289-2.768a1.922,1.922,0,1,1,3.833,0l-0.289,2.768a0.7,0.7,0,0,0,.343.672l5.09,3.019V96.8Z"
    transform="translate(-22 -85)"/>
</svg>
