<svg xmlns="http://www.w3.org/2000/svg" width="15" height="17" viewBox="0 0 15 17" fill="#f0ca6d">
  <path
    d="M24.537,257.584H36.462V243.415H24.537v14.169h0ZM37.231,259H23.769A0.74,0.74,0,0,1,23,258.292V242.707A0.739,0.739,0,0,1,23.769,242H37.231a0.739,0.739,0,0,1,.769.707v15.585a0.74,0.74,0,0,1-.769.708h0Zm-10.08-10.429h6.7v-2.824h-6.7v2.824h0Zm7.466,1.419H26.382a0.74,0.74,0,0,1-.769-0.708v-4.24a0.739,0.739,0,0,1,.769-0.707h8.235a0.739,0.739,0,0,1,.769.707v4.24a0.743,0.743,0,0,1-.769.708h0ZM28.9,256.245H27a0.71,0.71,0,1,1,0-1.416h1.9a0.71,0.71,0,1,1,0,1.416h0Zm5.025,0h-1.9a0.71,0.71,0,1,1,0-1.416h1.9a0.71,0.71,0,1,1,0,1.416h0ZM28.9,253.268H27a0.71,0.71,0,1,1,0-1.415h1.9a0.71,0.71,0,1,1,0,1.415h0Zm5.025,0h-1.9a0.71,0.71,0,1,1,0-1.415h1.9a0.71,0.71,0,1,1,0,1.415h0Z"
    transform="translate(-23 -242)"/>
</svg>
