<svg xmlns="http://www.w3.org/2000/svg" width="17" height="17" viewBox="0 0 17 17" fill="#b988f3">
  <path
    d="M39,136.717c0-.012,0-0.025,0-0.037s0-.024-0.006-0.036,0-.026-0.007-0.039-0.006-.023-0.009-0.034-0.007-.026-0.011-0.039l-0.012-.033-0.014-.036c-0.005-.012-0.011-0.023-0.017-0.035L38.9,136.4l-0.02-.034-0.019-.03-0.023-.03a0.33,0.33,0,0,0-.024-0.03l-0.024-.027-0.029-.03-0.01-.01-0.016-.013-0.032-.027-0.029-.021-0.033-.022-0.032-.02-0.033-.018-0.034-.016-0.035-.015-0.036-.013-0.036-.011L38.4,136.02l-0.036-.008-0.039-.006-0.035,0-0.043,0H35.136a0.773,0.773,0,0,0,0,1.546h1.322l-4.692,5.068L29.759,140.6a0.771,0.771,0,0,0-1.113.021l-6.439,6.948a0.773,0.773,0,0,0,1.134,1.05l5.894-6.359,2.008,2.008a0.773,0.773,0,0,0,1.113-.021l5.1-5.508v1.119a0.773,0.773,0,1,0,1.545,0v-3.091s0-.009,0-0.014S39,136.731,39,136.717Zm-0.77,14.737H22.773a0.773,0.773,0,0,0,0,1.546H38.227A0.773,0.773,0,0,0,38.227,151.454Z"
    transform="translate(-22 -136)"/>
</svg>
